<svg width="76" height="29" viewBox="0 0 76 29" fill="none" xmlns="http://www.w3.org/2000/svg">
<g clip-path="url(#clip0_9408_134381)">
<path d="M2.62844 9.895C4.08009 9.895 5.25689 8.7205 5.25689 7.27167C5.25689 5.82285 4.08009 4.64835 2.62844 4.64835C1.17679 4.64835 0 5.82285 0 7.27167C0 8.7205 1.17679 9.895 2.62844 9.895Z" fill="#05386B"/>
<path d="M24.0297 28.6666V26.3241C22.9778 27.8031 21.1265 28.8516 18.8096 28.8516C14.8256 28.8516 12.1379 26.1075 12.1379 21.5144V11.4647H17.3883V20.8058C17.3883 23.1483 18.7176 24.4435 20.6939 24.4435C22.7332 24.4435 24.0297 23.1483 24.0297 20.8058V11.4647H29.3129V28.6666H24.0297Z" fill="#5CDB95"/>
<path d="M44.592 20.0656C44.592 14.609 48.5143 11.2179 53.5503 11.2179C58.6152 11.2179 62.5073 14.609 62.5073 20.0656C62.5073 25.5222 58.5534 28.9132 53.4872 28.9132C48.421 28.9132 44.592 25.5222 44.592 20.0656ZM57.1334 20.0656C57.1334 17.1365 55.403 15.7809 53.5503 15.7809C51.6345 15.7809 49.966 17.1365 49.966 20.0656C49.966 22.9632 51.5727 24.3503 53.4872 24.3503C55.3727 24.3503 57.1334 22.9632 57.1334 20.0656Z" fill="#5CDB95"/>
<path d="M70.5968 28.6662H65.3149V11.4643H70.5968V14.3317C71.8013 12.5115 73.6855 11.2792 76.0023 11.2792V16.8592H74.5559C72.0577 16.8592 70.6021 17.7227 70.6021 20.682L70.5968 28.6662Z" fill="#5CDB95"/>
<path d="M13.2788 0.576233V2.28225H14.687V4.06176H13.2788V6.87012C13.2788 7.28481 13.455 7.46066 13.9362 7.46066H14.7028V9.27823H13.6102C12.152 9.27823 11.1356 8.66406 11.1356 6.84519V4.06176H10.2809V2.28225H11.1356V0.576233H13.2788Z" fill="#05386B"/>
<path d="M18.0476 0V3.22175C18.4749 2.62071 19.2415 2.20601 20.2092 2.20601C21.8042 2.20601 22.8718 3.30967 22.8718 5.19023V9.27811H20.7365V5.47238C20.7365 4.51963 20.2105 3.99339 19.3914 3.99339C18.5722 3.99339 18.0476 4.51832 18.0476 5.47238V9.27811H15.899V0H18.0476Z" fill="#05386B"/>
<path d="M27.4828 9.37758C25.4224 9.37758 23.9406 7.99833 23.9406 5.7792C23.9406 3.56007 25.3974 2.18082 27.4828 2.18082C29.5314 2.18082 30.9752 3.53513 30.9752 5.66634C30.975 5.87597 30.9627 6.08541 30.9383 6.29363H26.0733C26.1482 7.21225 26.7136 7.63482 27.4053 7.63482C28.0088 7.63482 28.348 7.3343 28.5229 6.95766H30.8095C30.4755 8.3251 29.2316 9.37758 27.4828 9.37758ZM26.0891 5.10204H28.7767C28.7767 4.33827 28.1745 3.89864 27.4618 3.89864C26.7491 3.89864 26.2166 4.32515 26.0917 5.10204H26.0891Z" fill="#05386B"/>
<path d="M8.61772 16.8016V11.5524H2.50801e-06V20.1533C-0.000861276 21.2834 0.221405 22.4025 0.654099 23.4468C1.08679 24.491 1.72143 25.44 2.52175 26.2393C3.32206 27.0387 4.27236 27.6728 5.31834 28.1055C6.36432 28.5381 7.48547 28.7608 8.61772 28.7608V23.5115C7.72725 23.5095 6.8739 23.1553 6.24449 22.5266C5.61508 21.898 5.26091 21.046 5.25952 20.1573V16.8016H8.61772Z" fill="#5CDB95"/>
<path d="M38.6342 9.895C40.0858 9.895 41.2626 8.7205 41.2626 7.27167C41.2626 5.82285 40.0858 4.64835 38.6342 4.64835C37.1825 4.64835 36.0057 5.82285 36.0057 7.27167C36.0057 8.7205 37.1825 9.895 38.6342 9.895Z" fill="#05386B"/>
<path d="M32.6396 16.8016V11.5524H41.2574V20.1533C41.2582 21.2834 41.036 22.4025 40.6033 23.4468C40.1706 24.491 39.5359 25.44 38.7356 26.2393C37.9353 27.0387 36.985 27.6728 35.939 28.1055C34.893 28.5381 33.7719 28.7608 32.6396 28.7608V23.5115C33.531 23.5105 34.3856 23.1566 35.0159 22.5276C35.6462 21.8985 36.0008 21.0456 36.0018 20.1559V16.8016H32.6396Z" fill="#5CDB95"/>
</g>
<defs>
<clipPath id="clip0_9408_134381">
<rect width="76" height="28.913" fill="white"/>
</clipPath>
</defs>
</svg>
