<svg width="94" height="75" viewBox="0 0 94 75" fill="none" xmlns="http://www.w3.org/2000/svg">
<rect x="0.5" y="0.5" width="93" height="74" rx="3.5" fill="white" stroke="#E6EBF0"/>
<rect x="15.5" y="14.5" width="63" height="32" fill="white" stroke="#B8C7D6" stroke-width="3"/>
<rect x="22" y="19" width="12" height="10" rx="1" fill="#B8C7D6"/>
<rect x="56" y="19" width="8" height="6" rx="1" fill="#B8C7D6"/>
<rect x="36" y="23" width="18" height="16" rx="1" fill="#B8C7D6"/>
<rect x="56" y="30" width="16" height="12" rx="1" fill="#B8C7D6"/>
<path d="M35.1237 57.05V64H33.9837V59.24L31.8637 64H31.0737L28.9437 59.24V64H27.8037V57.05H29.0337L31.4737 62.5L33.9037 57.05H35.1237ZM41.6121 58.49V64H40.4721V63.35C40.2921 63.5767 40.0554 63.7567 39.7621 63.89C39.4754 64.0167 39.1687 64.08 38.8421 64.08C38.4087 64.08 38.0187 63.99 37.6721 63.81C37.3321 63.63 37.0621 63.3633 36.8621 63.01C36.6687 62.6567 36.5721 62.23 36.5721 61.73V58.49H37.7021V61.56C37.7021 62.0533 37.8254 62.4333 38.0721 62.7C38.3187 62.96 38.6554 63.09 39.0821 63.09C39.5087 63.09 39.8454 62.96 40.0921 62.7C40.3454 62.4333 40.4721 62.0533 40.4721 61.56V58.49H41.6121ZM44.2562 56.6V64H43.1162V56.6H44.2562ZM47.0829 59.42V62.47C47.0829 62.6767 47.1296 62.8267 47.2229 62.92C47.3229 63.0067 47.4896 63.05 47.7229 63.05H48.4229V64H47.5229C47.0096 64 46.6163 63.88 46.3429 63.64C46.0696 63.4 45.9329 63.01 45.9329 62.47V59.42H45.2829V58.49H45.9329V57.12H47.0829V58.49H48.4229V59.42H47.0829ZM50.0536 57.76C49.847 57.76 49.6736 57.69 49.5336 57.55C49.3936 57.41 49.3236 57.2367 49.3236 57.03C49.3236 56.8233 49.3936 56.65 49.5336 56.51C49.6736 56.37 49.847 56.3 50.0536 56.3C50.2536 56.3 50.4236 56.37 50.5636 56.51C50.7036 56.65 50.7736 56.8233 50.7736 57.03C50.7736 57.2367 50.7036 57.41 50.5636 57.55C50.4236 57.69 50.2536 57.76 50.0536 57.76ZM50.6136 58.49V64H49.4736V58.49H50.6136ZM53.2504 59.3C53.4437 59.0467 53.707 58.8333 54.0404 58.66C54.3737 58.4867 54.7504 58.4 55.1704 58.4C55.6504 58.4 56.087 58.52 56.4804 58.76C56.8804 58.9933 57.1937 59.3233 57.4204 59.75C57.647 60.1767 57.7604 60.6667 57.7604 61.22C57.7604 61.7733 57.647 62.27 57.4204 62.71C57.1937 63.1433 56.8804 63.4833 56.4804 63.73C56.087 63.97 55.6504 64.09 55.1704 64.09C54.7504 64.09 54.377 64.0067 54.0504 63.84C53.7237 63.6667 53.457 63.4533 53.2504 63.2V66.62H52.1104V58.49H53.2504V59.3ZM56.6004 61.22C56.6004 60.84 56.5204 60.5133 56.3604 60.24C56.207 59.96 56.0004 59.75 55.7404 59.61C55.487 59.4633 55.2137 59.39 54.9204 59.39C54.6337 59.39 54.3604 59.4633 54.1004 59.61C53.847 59.7567 53.6404 59.97 53.4804 60.25C53.327 60.53 53.2504 60.86 53.2504 61.24C53.2504 61.62 53.327 61.9533 53.4804 62.24C53.6404 62.52 53.847 62.7333 54.1004 62.88C54.3604 63.0267 54.6337 63.1 54.9204 63.1C55.2137 63.1 55.487 63.0267 55.7404 62.88C56.0004 62.7267 56.207 62.5067 56.3604 62.22C56.5204 61.9333 56.6004 61.6 56.6004 61.22ZM60.0277 56.6V64H58.8877V56.6H60.0277ZM66.5744 61.11C66.5744 61.3167 66.5611 61.5033 66.5344 61.67H62.3244C62.3577 62.11 62.5211 62.4633 62.8144 62.73C63.1077 62.9967 63.4677 63.13 63.8944 63.13C64.5077 63.13 64.9411 62.8733 65.1944 62.36H66.4244C66.2577 62.8667 65.9544 63.2833 65.5144 63.61C65.0811 63.93 64.5411 64.09 63.8944 64.09C63.3677 64.09 62.8944 63.9733 62.4744 63.74C62.0611 63.5 61.7344 63.1667 61.4944 62.74C61.2611 62.3067 61.1444 61.8067 61.1444 61.24C61.1444 60.6733 61.2577 60.1767 61.4844 59.75C61.7177 59.3167 62.0411 58.9833 62.4544 58.75C62.8744 58.5167 63.3544 58.4 63.8944 58.4C64.4144 58.4 64.8777 58.5133 65.2844 58.74C65.6911 58.9667 66.0077 59.2867 66.2344 59.7C66.4611 60.1067 66.5744 60.5767 66.5744 61.11ZM65.3844 60.75C65.3777 60.33 65.2277 59.9933 64.9344 59.74C64.6411 59.4867 64.2777 59.36 63.8444 59.36C63.4511 59.36 63.1144 59.4867 62.8344 59.74C62.5544 59.9867 62.3877 60.3233 62.3344 60.75H65.3844Z" fill="#05386B"/>
</svg>
