<svg width="94" height="75" viewBox="0 0 94 75" fill="none" xmlns="http://www.w3.org/2000/svg">
<rect x="0.5" y="0.5" width="93" height="74" rx="3.5" fill="white" stroke="#E6EBF0"/>
<path d="M35.164 64.07C34.6974 64.07 34.2774 63.99 33.904 63.83C33.5307 63.6633 33.2374 63.43 33.024 63.13C32.8107 62.83 32.704 62.48 32.704 62.08H33.924C33.9507 62.38 34.0674 62.6267 34.274 62.82C34.4874 63.0133 34.784 63.11 35.164 63.11C35.5574 63.11 35.864 63.0167 36.084 62.83C36.304 62.6367 36.414 62.39 36.414 62.09C36.414 61.8567 36.344 61.6667 36.204 61.52C36.0707 61.3733 35.9007 61.26 35.694 61.18C35.494 61.1 35.214 61.0133 34.854 60.92C34.4007 60.8 34.0307 60.68 33.744 60.56C33.464 60.4333 33.224 60.24 33.024 59.98C32.824 59.72 32.724 59.3733 32.724 58.94C32.724 58.54 32.824 58.19 33.024 57.89C33.224 57.59 33.504 57.36 33.864 57.2C34.224 57.04 34.6407 56.96 35.114 56.96C35.7874 56.96 36.3374 57.13 36.764 57.47C37.1974 57.8033 37.4374 58.2633 37.484 58.85H36.224C36.204 58.5967 36.084 58.38 35.864 58.2C35.644 58.02 35.354 57.93 34.994 57.93C34.6674 57.93 34.4007 58.0133 34.194 58.18C33.9874 58.3467 33.884 58.5867 33.884 58.9C33.884 59.1133 33.9474 59.29 34.074 59.43C34.2074 59.5633 34.374 59.67 34.574 59.75C34.774 59.83 35.0474 59.9167 35.394 60.01C35.854 60.1367 36.2274 60.2633 36.514 60.39C36.8074 60.5167 37.054 60.7133 37.254 60.98C37.4607 61.24 37.564 61.59 37.564 62.03C37.564 62.3833 37.4674 62.7167 37.274 63.03C37.0874 63.3433 36.8107 63.5967 36.444 63.79C36.084 63.9767 35.6574 64.07 35.164 64.07ZM39.4892 57.76C39.2825 57.76 39.1092 57.69 38.9692 57.55C38.8292 57.41 38.7592 57.2367 38.7592 57.03C38.7592 56.8233 38.8292 56.65 38.9692 56.51C39.1092 56.37 39.2825 56.3 39.4892 56.3C39.6892 56.3 39.8592 56.37 39.9992 56.51C40.1392 56.65 40.2092 56.8233 40.2092 57.03C40.2092 57.2367 40.1392 57.41 39.9992 57.55C39.8592 57.69 39.6892 57.76 39.4892 57.76ZM40.0492 58.49V64H38.9092V58.49H40.0492ZM44.3259 58.4C44.7592 58.4 45.1459 58.49 45.4859 58.67C45.8326 58.85 46.1026 59.1167 46.2959 59.47C46.4892 59.8233 46.5859 60.25 46.5859 60.75V64H45.4559V60.92C45.4559 60.4267 45.3326 60.05 45.0859 59.79C44.8392 59.5233 44.5026 59.39 44.0759 59.39C43.6492 59.39 43.3092 59.5233 43.0559 59.79C42.8092 60.05 42.6859 60.4267 42.6859 60.92V64H41.5459V58.49H42.6859V59.12C42.8726 58.8933 43.1092 58.7167 43.3959 58.59C43.6892 58.4633 43.9992 58.4 44.3259 58.4ZM50.26 58.4C50.6867 58.4 51.0634 58.4867 51.39 58.66C51.7234 58.8267 51.9834 59.0367 52.17 59.29V58.49H53.32V64.09C53.32 64.5967 53.2134 65.0467 53 65.44C52.7867 65.84 52.4767 66.1533 52.07 66.38C51.67 66.6067 51.19 66.72 50.63 66.72C49.8834 66.72 49.2634 66.5433 48.77 66.19C48.2767 65.8433 47.9967 65.37 47.93 64.77H49.06C49.1467 65.0567 49.33 65.2867 49.61 65.46C49.8967 65.64 50.2367 65.73 50.63 65.73C51.09 65.73 51.46 65.59 51.74 65.31C52.0267 65.03 52.17 64.6233 52.17 64.09V63.17C51.9767 63.43 51.7134 63.65 51.38 63.83C51.0534 64.0033 50.68 64.09 50.26 64.09C49.78 64.09 49.34 63.97 48.94 63.73C48.5467 63.4833 48.2334 63.1433 48 62.71C47.7734 62.27 47.66 61.7733 47.66 61.22C47.66 60.6667 47.7734 60.1767 48 59.75C48.2334 59.3233 48.5467 58.9933 48.94 58.76C49.34 58.52 49.78 58.4 50.26 58.4ZM52.17 61.24C52.17 60.86 52.09 60.53 51.93 60.25C51.7767 59.97 51.5734 59.7567 51.32 59.61C51.0667 59.4633 50.7934 59.39 50.5 59.39C50.2067 59.39 49.9334 59.4633 49.68 59.61C49.4267 59.75 49.22 59.96 49.06 60.24C48.9067 60.5133 48.83 60.84 48.83 61.22C48.83 61.6 48.9067 61.9333 49.06 62.22C49.22 62.5067 49.4267 62.7267 49.68 62.88C49.94 63.0267 50.2134 63.1 50.5 63.1C50.7934 63.1 51.0667 63.0267 51.32 62.88C51.5734 62.7333 51.7767 62.52 51.93 62.24C52.09 61.9533 52.17 61.62 52.17 61.24ZM55.9574 56.6V64H54.8174V56.6H55.9574ZM62.5041 61.11C62.5041 61.3167 62.4908 61.5033 62.4641 61.67H58.2541C58.2874 62.11 58.4508 62.4633 58.7441 62.73C59.0374 62.9967 59.3974 63.13 59.8241 63.13C60.4374 63.13 60.8708 62.8733 61.1241 62.36H62.3541C62.1874 62.8667 61.8841 63.2833 61.4441 63.61C61.0108 63.93 60.4708 64.09 59.8241 64.09C59.2974 64.09 58.8241 63.9733 58.4041 63.74C57.9908 63.5 57.6641 63.1667 57.4241 62.74C57.1908 62.3067 57.0741 61.8067 57.0741 61.24C57.0741 60.6733 57.1874 60.1767 57.4141 59.75C57.6474 59.3167 57.9708 58.9833 58.3841 58.75C58.8041 58.5167 59.2841 58.4 59.8241 58.4C60.3441 58.4 60.8074 58.5133 61.2141 58.74C61.6208 58.9667 61.9374 59.2867 62.1641 59.7C62.3908 60.1067 62.5041 60.5767 62.5041 61.11ZM61.3141 60.75C61.3074 60.33 61.1574 59.9933 60.8641 59.74C60.5708 59.4867 60.2074 59.36 59.7741 59.36C59.3808 59.36 59.0441 59.4867 58.7641 59.74C58.4841 59.9867 58.3174 60.3233 58.2641 60.75H61.3141Z" fill="#05386B"/>
<rect x="15.5" y="14.5" width="63" height="32" fill="white" stroke="#B8C7D6" stroke-width="3"/>
<rect x="22" y="20" width="19" height="21" rx="1" fill="#B8C7D6"/>
<rect x="49" y="33" width="22" height="4" rx="2" fill="#B8C7D6"/>
<rect x="49" y="24" width="22" height="4" rx="2" fill="#B8C7D6"/>
</svg>
