<svg width="94" height="75" viewBox="0 0 94 75" fill="none" xmlns="http://www.w3.org/2000/svg">
<rect x="0.5" y="0.5" width="93" height="74" rx="3.5" fill="white" stroke="#E6EBF0"/>
<path d="M38.5798 57.05V57.98H36.7298V64H35.5898V57.98H33.7298V57.05H38.5798ZM42.5844 58.4C43.0044 58.4 43.3777 58.49 43.7044 58.67C44.0377 58.85 44.2977 59.1167 44.4844 59.47C44.6777 59.8233 44.7744 60.25 44.7744 60.75V64H43.6444V60.92C43.6444 60.4267 43.521 60.05 43.2744 59.79C43.0277 59.5233 42.691 59.39 42.2644 59.39C41.8377 59.39 41.4977 59.5233 41.2444 59.79C40.9977 60.05 40.8744 60.4267 40.8744 60.92V64H39.7344V56.6H40.8744V59.13C41.0677 58.8967 41.311 58.7167 41.6044 58.59C41.9044 58.4633 42.231 58.4 42.5844 58.4ZM47.3685 59.29C47.5352 59.01 47.7552 58.7933 48.0285 58.64C48.3085 58.48 48.6385 58.4 49.0185 58.4V59.58H48.7285C48.2818 59.58 47.9418 59.6933 47.7085 59.92C47.4818 60.1467 47.3685 60.54 47.3685 61.1V64H46.2285V58.49H47.3685V59.29ZM55.1164 61.11C55.1164 61.3167 55.1031 61.5033 55.0764 61.67H50.8664C50.8997 62.11 51.0631 62.4633 51.3564 62.73C51.6497 62.9967 52.0097 63.13 52.4364 63.13C53.0497 63.13 53.4831 62.8733 53.7364 62.36H54.9664C54.7997 62.8667 54.4964 63.2833 54.0564 63.61C53.6231 63.93 53.0831 64.09 52.4364 64.09C51.9097 64.09 51.4364 63.9733 51.0164 63.74C50.6031 63.5 50.2764 63.1667 50.0364 62.74C49.8031 62.3067 49.6864 61.8067 49.6864 61.24C49.6864 60.6733 49.7997 60.1767 50.0264 59.75C50.2597 59.3167 50.5831 58.9833 50.9964 58.75C51.4164 58.5167 51.8964 58.4 52.4364 58.4C52.9564 58.4 53.4197 58.5133 53.8264 58.74C54.2331 58.9667 54.5497 59.2867 54.7764 59.7C55.0031 60.1067 55.1164 60.5767 55.1164 61.11ZM53.9264 60.75C53.9197 60.33 53.7697 59.9933 53.4764 59.74C53.1831 59.4867 52.8197 59.36 52.3864 59.36C51.9931 59.36 51.6564 59.4867 51.3764 59.74C51.0964 59.9867 50.9297 60.3233 50.8764 60.75H53.9264ZM61.2883 61.11C61.2883 61.3167 61.2749 61.5033 61.2483 61.67H57.0383C57.0716 62.11 57.2349 62.4633 57.5283 62.73C57.8216 62.9967 58.1816 63.13 58.6083 63.13C59.2216 63.13 59.6549 62.8733 59.9083 62.36H61.1383C60.9716 62.8667 60.6683 63.2833 60.2283 63.61C59.7949 63.93 59.2549 64.09 58.6083 64.09C58.0816 64.09 57.6083 63.9733 57.1883 63.74C56.7749 63.5 56.4483 63.1667 56.2083 62.74C55.9749 62.3067 55.8583 61.8067 55.8583 61.24C55.8583 60.6733 55.9716 60.1767 56.1983 59.75C56.4316 59.3167 56.7549 58.9833 57.1683 58.75C57.5883 58.5167 58.0683 58.4 58.6083 58.4C59.1283 58.4 59.5916 58.5133 59.9983 58.74C60.4049 58.9667 60.7216 59.2867 60.9483 59.7C61.1749 60.1067 61.2883 60.5767 61.2883 61.11ZM60.0983 60.75C60.0916 60.33 59.9416 59.9933 59.6483 59.74C59.3549 59.4867 58.9916 59.36 58.5583 59.36C58.1649 59.36 57.8283 59.4867 57.5483 59.74C57.2683 59.9867 57.1016 60.3233 57.0483 60.75H60.0983Z" fill="#05386B"/>
<rect x="15.5" y="14.5" width="63" height="32" fill="white" stroke="#B8C7D6" stroke-width="3"/>
<rect x="22.5" y="19.5" width="13" height="21" rx="0.5" fill="#B8C7D6" stroke="#B8C7D6"/>
<rect x="40.5" y="19.5" width="13" height="21" rx="0.5" fill="#B8C7D6" stroke="#B8C7D6"/>
<rect x="58.5" y="19.5" width="13" height="21" rx="0.5" fill="#B8C7D6" stroke="#B8C7D6"/>
</svg>
