<svg width="94" height="75" viewBox="0 0 94 75" fill="none" xmlns="http://www.w3.org/2000/svg">
<rect x="0.5" y="0.5" width="93" height="74" rx="3.5" fill="white" stroke="#E6EBF0"/>
<rect x="15.5" y="14.5" width="63" height="32" fill="white" stroke="#B8C7D6" stroke-width="3"/>
<rect x="25" y="20" width="19" height="21" rx="1" fill="#B8C7D6"/>
<rect x="51" y="20" width="19" height="21" rx="1" fill="#B8C7D6"/>
<path d="M42.6033 57.05V57.98H40.7533V64H39.6133V57.98H37.7533V57.05H42.6033ZM51.1578 58.49L49.4478 64H48.2478L47.1378 59.93L46.0278 64H44.8278L43.1078 58.49H44.2678L45.4178 62.92L46.5878 58.49H47.7778L48.8978 62.9L50.0378 58.49H51.1578ZM54.3998 64.09C53.8798 64.09 53.4098 63.9733 52.9898 63.74C52.5698 63.5 52.2398 63.1667 51.9998 62.74C51.7598 62.3067 51.6398 61.8067 51.6398 61.24C51.6398 60.68 51.7631 60.1833 52.0098 59.75C52.2564 59.3167 52.5931 58.9833 53.0198 58.75C53.4464 58.5167 53.9231 58.4 54.4498 58.4C54.9764 58.4 55.4531 58.5167 55.8798 58.75C56.3064 58.9833 56.6431 59.3167 56.8898 59.75C57.1364 60.1833 57.2598 60.68 57.2598 61.24C57.2598 61.8 57.1331 62.2967 56.8798 62.73C56.6264 63.1633 56.2798 63.5 55.8398 63.74C55.4064 63.9733 54.9264 64.09 54.3998 64.09ZM54.3998 63.1C54.6931 63.1 54.9664 63.03 55.2198 62.89C55.4798 62.75 55.6898 62.54 55.8498 62.26C56.0098 61.98 56.0898 61.64 56.0898 61.24C56.0898 60.84 56.0131 60.5033 55.8598 60.23C55.7064 59.95 55.5031 59.74 55.2498 59.6C54.9964 59.46 54.7231 59.39 54.4298 59.39C54.1364 59.39 53.8631 59.46 53.6098 59.6C53.3631 59.74 53.1664 59.95 53.0198 60.23C52.8731 60.5033 52.7998 60.84 52.7998 61.24C52.7998 61.8333 52.9498 62.2933 53.2498 62.62C53.5564 62.94 53.9398 63.1 54.3998 63.1Z" fill="#05386B"/>
</svg>
