<svg width="25" height="24" viewBox="0 0 25 24" fill="none" xmlns="http://www.w3.org/2000/svg">
<path d="M12.5 15L20.885 6.58499C21.2788 6.19114 21.5001 5.65697 21.5001 5.09998C21.5001 4.543 21.2788 4.00883 20.885 3.61498C20.4912 3.22114 19.957 2.99988 19.4 2.99988C18.843 2.99988 18.3088 3.22114 17.915 3.61498L9.5 12V15H12.5Z" stroke="#05386B" stroke-width="1.5" stroke-linecap="round" stroke-linejoin="round"/>
<path d="M16.5 5L19.5 8" stroke="#05386B" stroke-width="1.5" stroke-linecap="round" stroke-linejoin="round"/>
<path d="M9.50002 7.06995C7.75106 7.32623 6.16374 8.23451 5.05665 9.6125C3.94955 10.9905 3.4046 12.7362 3.53117 14.4993C3.65774 16.2624 4.44646 17.9124 5.73903 19.1181C7.03161 20.3239 8.73238 20.9961 10.5 20.9999C12.1831 20.9998 13.8099 20.3933 15.0824 19.2916C16.3549 18.1899 17.1879 16.6667 17.429 15.0009" stroke="#05386B" stroke-width="1.5" stroke-linecap="round" stroke-linejoin="round"/>
</svg>
