<svg width="36" height="36" viewBox="0 0 36 36" fill="none" xmlns="http://www.w3.org/2000/svg">
<path d="M0 4C0 1.79086 1.79086 0 4 0H32C34.2091 0 36 1.79086 36 4V32C36 34.2091 34.2091 36 32 36H4C1.79086 36 0 34.2091 0 32V4Z" fill="white"/>
<path d="M13.3333 18H12L18 12L24 18H22.6667" stroke="#05386B" stroke-width="1.25" stroke-linecap="round" stroke-linejoin="round"/>
<path d="M13.3311 18V22.6667C13.3311 23.0203 13.4715 23.3594 13.7216 23.6095C13.9716 23.8595 14.3108 24 14.6644 24H21.3311C21.6847 24 22.0238 23.8595 22.2739 23.6095C22.5239 23.3594 22.6644 23.0203 22.6644 22.6667V18" stroke="#05386B" stroke-width="1.25" stroke-linecap="round" stroke-linejoin="round"/>
<path d="M19.3356 18H16.6689V20.6667H19.3356V18Z" stroke="#05386B" stroke-width="1.25" stroke-linecap="round" stroke-linejoin="round"/>
<path d="M4 1H32V-1H4V1ZM35 4V32H37V4H35ZM32 35H4V37H32V35ZM1 32V4H-1V32H1ZM4 35C2.34315 35 1 33.6569 1 32H-1C-1 34.7614 1.23858 37 4 37V35ZM35 32C35 33.6569 33.6569 35 32 35V37C34.7614 37 37 34.7614 37 32H35ZM32 1C33.6569 1 35 2.34315 35 4H37C37 1.23858 34.7614 -1 32 -1V1ZM4 -1C1.23858 -1 -1 1.23858 -1 4H1C1 2.34315 2.34315 1 4 1V-1Z" fill="#E6EBF0"/>
</svg>
