<svg width="25" height="24" viewBox="0 0 25 24" fill="none" xmlns="http://www.w3.org/2000/svg">
<path d="M15.5 8H15.51" stroke="white" stroke-width="0.5" stroke-linecap="round" stroke-linejoin="round"/>
<path d="M17.5032 4H7.50317C5.84632 4 4.50317 5.34315 4.50317 7V17C4.50317 18.6569 5.84632 20 7.50317 20H17.5032C19.16 20 20.5032 18.6569 20.5032 17V7C20.5032 5.34315 19.16 4 17.5032 4Z" fill="#05386B"/>
<path d="M4.50317 15L8.50317 11C8.95923 10.5611 9.47656 10.3301 10.0032 10.3301C10.5298 10.3301 11.0471 10.5611 11.5032 11L16.5032 16" stroke="white" stroke-width="1.5" stroke-linecap="round" stroke-linejoin="round"/>
<path d="M14.4968 14L15.4968 13C15.9529 12.5611 16.4702 12.3301 16.9968 12.3301C17.5234 12.3301 18.0408 12.5611 18.4968 13L20.4968 15" stroke="white" stroke-width="1.5" stroke-linecap="round" stroke-linejoin="round"/>
</svg>
