<svg width="36" height="36" viewBox="0 0 36 36" fill="none" xmlns="http://www.w3.org/2000/svg">
<path d="M0 4C0 1.79086 1.79086 0 4 0H32C34.2091 0 36 1.79086 36 4V32C36 34.2091 34.2091 36 32 36H4C1.79086 36 0 34.2091 0 32V4Z" fill="white"/>
<path d="M16.8833 12.878C17.1673 11.7073 18.8327 11.7073 19.1167 12.878C19.1593 13.0539 19.2428 13.2172 19.3605 13.3547C19.4781 13.4921 19.6266 13.5999 19.7938 13.6692C19.9609 13.7384 20.1421 13.7672 20.3225 13.7532C20.5029 13.7393 20.6775 13.6829 20.832 13.5887C21.8607 12.962 23.0387 14.1393 22.412 15.1687C22.3179 15.3231 22.2616 15.4976 22.2477 15.6778C22.2337 15.8581 22.2625 16.0392 22.3317 16.2063C22.4009 16.3733 22.5085 16.5217 22.6458 16.6394C22.7831 16.757 22.9463 16.8406 23.122 16.8833C24.2927 17.1673 24.2927 18.8327 23.122 19.1167C22.9461 19.1593 22.7828 19.2428 22.6453 19.3605C22.5079 19.4781 22.4001 19.6266 22.3308 19.7938C22.2616 19.9609 22.2328 20.1421 22.2468 20.3225C22.2607 20.5029 22.3171 20.6775 22.4113 20.832C23.038 21.8607 21.8607 23.0387 20.8313 22.412C20.6769 22.3179 20.5024 22.2616 20.3222 22.2477C20.1419 22.2337 19.9608 22.2625 19.7937 22.3317C19.6267 22.4009 19.4783 22.5085 19.3606 22.6458C19.243 22.7831 19.1594 22.9463 19.1167 23.122C18.8327 24.2927 17.1673 24.2927 16.8833 23.122C16.8407 22.9461 16.7572 22.7828 16.6395 22.6453C16.5219 22.5079 16.3734 22.4001 16.2062 22.3308C16.0391 22.2616 15.8579 22.2328 15.6775 22.2468C15.4971 22.2607 15.3225 22.3171 15.168 22.4113C14.1393 23.038 12.9613 21.8607 13.588 20.8313C13.6821 20.6769 13.7384 20.5024 13.7523 20.3222C13.7663 20.1419 13.7375 19.9608 13.6683 19.7937C13.5991 19.6267 13.4915 19.4783 13.3542 19.3606C13.2169 19.243 13.0537 19.1594 12.878 19.1167C11.7073 18.8327 11.7073 17.1673 12.878 16.8833C13.0539 16.8407 13.2172 16.7572 13.3547 16.6395C13.4921 16.5219 13.5999 16.3734 13.6692 16.2062C13.7384 16.0391 13.7672 15.8579 13.7532 15.6775C13.7393 15.4971 13.6829 15.3225 13.5887 15.168C12.962 14.1393 14.1393 12.9613 15.1687 13.588C15.8353 13.9933 16.6993 13.6347 16.8833 12.878Z" stroke="#05386B" stroke-width="1.25" stroke-linecap="round" stroke-linejoin="round"/>
<path d="M18 20C19.1046 20 20 19.1046 20 18C20 16.8954 19.1046 16 18 16C16.8954 16 16 16.8954 16 18C16 19.1046 16.8954 20 18 20Z" stroke="#05386B" stroke-width="1.25" stroke-linecap="round" stroke-linejoin="round"/>
<path d="M4 1H32V-1H4V1ZM35 4V32H37V4H35ZM32 35H4V37H32V35ZM1 32V4H-1V32H1ZM4 35C2.34315 35 1 33.6569 1 32H-1C-1 34.7614 1.23858 37 4 37V35ZM35 32C35 33.6569 33.6569 35 32 35V37C34.7614 37 37 34.7614 37 32H35ZM32 1C33.6569 1 35 2.34315 35 4H37C37 1.23858 34.7614 -1 32 -1V1ZM4 -1C1.23858 -1 -1 1.23858 -1 4H1C1 2.34315 2.34315 1 4 1V-1Z" fill="#E6EBF0"/>
</svg>
