<svg width="25" height="24" viewBox="0 0 25 24" fill="none" xmlns="http://www.w3.org/2000/svg">
<path d="M13.5 20L20.5 13" stroke="#05386B" stroke-width="1.5" stroke-linecap="round" stroke-linejoin="round"/>
<path d="M13.5 20V14C13.5 13.7348 13.6054 13.4804 13.7929 13.2929C13.9804 13.1054 14.2348 13 14.5 13H20.5V6C20.5 5.46957 20.2893 4.96086 19.9142 4.58579C19.5391 4.21071 19.0304 4 18.5 4H6.5C5.96957 4 5.46086 4.21071 5.08579 4.58579C4.71071 4.96086 4.5 5.46957 4.5 6V18C4.5 18.5304 4.71071 19.0391 5.08579 19.4142C5.46086 19.7893 5.96957 20 6.5 20H13.5Z" stroke="#05386B" stroke-width="1.5" stroke-linecap="round" stroke-linejoin="round"/>
</svg>
