<svg width="25" height="24" viewBox="0 0 25 24" fill="none" xmlns="http://www.w3.org/2000/svg">
<path d="M6.5 9H12.5" stroke="#05386B" stroke-width="1.5" stroke-linecap="round" stroke-linejoin="round"/>
<path d="M4.5 5H8.5" stroke="#05386B" stroke-width="1.5" stroke-linecap="round" stroke-linejoin="round"/>
<path d="M6.5 5V16C6.5 16.2652 6.60536 16.5196 6.79289 16.7071C6.98043 16.8946 7.23478 17 7.5 17H12.5" stroke="#05386B" stroke-width="1.5" stroke-linecap="round" stroke-linejoin="round"/>
<path d="M19.5 7H13.5C12.9477 7 12.5 7.44772 12.5 8V10C12.5 10.5523 12.9477 11 13.5 11H19.5C20.0523 11 20.5 10.5523 20.5 10V8C20.5 7.44772 20.0523 7 19.5 7Z" stroke="#05386B" stroke-width="1.5" stroke-linecap="round" stroke-linejoin="round"/>
<path d="M19.5 15H13.5C12.9477 15 12.5 15.4477 12.5 16V18C12.5 18.5523 12.9477 19 13.5 19H19.5C20.0523 19 20.5 18.5523 20.5 18V16C20.5 15.4477 20.0523 15 19.5 15Z" stroke="#05386B" stroke-width="1.5" stroke-linecap="round" stroke-linejoin="round"/>
</svg>
