<svg width="21" height="20" viewBox="0 0 21 20" fill="none" xmlns="http://www.w3.org/2000/svg">
<path d="M12.1665 2.5V5.83333C12.1665 6.05435 12.2543 6.26631 12.4106 6.42259C12.5669 6.57887 12.7788 6.66667 12.9998 6.66667H16.3332" stroke="black" stroke-width="1.25" stroke-linecap="round" stroke-linejoin="round"/>
<path d="M14.6665 17.5H6.33317C5.89114 17.5 5.46722 17.3244 5.15466 17.0118C4.8421 16.6993 4.6665 16.2754 4.6665 15.8333V4.16667C4.6665 3.72464 4.8421 3.30072 5.15466 2.98816C5.46722 2.67559 5.89114 2.5 6.33317 2.5H12.1665L16.3332 6.66667V15.8333C16.3332 16.2754 16.1576 16.6993 15.845 17.0118C15.5325 17.3244 15.1085 17.5 14.6665 17.5Z" stroke="black" stroke-width="1.25" stroke-linecap="round" stroke-linejoin="round"/>
<path d="M8.83333 10.8335L8 12.5002L8.83333 14.1668" stroke="black" stroke-width="1.25" stroke-linecap="round" stroke-linejoin="round"/>
<path d="M12.167 10.833L13.0003 12.4997L12.167 14.1663" stroke="black" stroke-width="1.25" stroke-linecap="round" stroke-linejoin="round"/>
</svg>
