<svg width="36" height="36" viewBox="0 0 36 36" fill="none" xmlns="http://www.w3.org/2000/svg">
<path d="M0 4C0 1.79086 1.79086 0 4 0H32C34.2091 0 36 1.79086 36 4V32C36 34.2091 34.2091 36 32 36H4C1.79086 36 0 34.2091 0 32V4Z" fill="white"/>
<path d="M12 20.6666V17C12 16.558 12.1756 16.134 12.4882 15.8215C12.8007 15.5089 13.2246 15.3333 13.6667 15.3333C14.1087 15.3333 14.5326 15.5089 14.8452 15.8215C15.1577 16.134 15.3333 16.558 15.3333 17V20.6666M15.3333 18H12" stroke="#05386B" stroke-width="1.25" stroke-linecap="round" stroke-linejoin="round"/>
<path d="M18 14V22" stroke="#05386B" stroke-width="1.25" stroke-linecap="round" stroke-linejoin="round"/>
<path d="M22.6665 18C23.0201 18 23.3593 18.1405 23.6093 18.3905C23.8594 18.6406 23.9998 18.9797 23.9998 19.3333C23.9998 19.6869 23.8594 20.0261 23.6093 20.2761C23.3593 20.5262 23.0201 20.6666 22.6665 20.6666H20.6665M20.6665 20.6666V15.3333H22.6665C23.0201 15.3333 23.3593 15.4738 23.6093 15.7238C23.8594 15.9739 23.9998 16.313 23.9998 16.6666C23.9998 17.0203 23.8594 17.3594 23.6093 17.6095C23.3593 17.8595 23.0201 18 22.6665 18H20.6665V20.6666Z" stroke="#05386B" stroke-width="1.25" stroke-linecap="round" stroke-linejoin="round"/>
<path d="M4 1H32V-1H4V1ZM35 4V32H37V4H35ZM32 35H4V37H32V35ZM1 32V4H-1V32H1ZM4 35C2.34315 35 1 33.6569 1 32H-1C-1 34.7614 1.23858 37 4 37V35ZM35 32C35 33.6569 33.6569 35 32 35V37C34.7614 37 37 34.7614 37 32H35ZM32 1C33.6569 1 35 2.34315 35 4H37C37 1.23858 34.7614 -1 32 -1V1ZM4 -1C1.23858 -1 -1 1.23858 -1 4H1C1 2.34315 2.34315 1 4 1V-1Z" fill="#E6EBF0"/>
</svg>
