<svg width="94" height="75" viewBox="0 0 94 75" fill="none" xmlns="http://www.w3.org/2000/svg">
<rect x="0.5" y="0.5" width="93" height="74" rx="3.5" fill="white" stroke="#E6EBF0"/>
<path d="M19.698 57.05V57.98H17.848V64H16.708V57.98H14.848V57.05H19.698ZM25.9025 61.11C25.9025 61.3167 25.8892 61.5033 25.8625 61.67H21.6525C21.6859 62.11 21.8492 62.4633 22.1425 62.73C22.4359 62.9967 22.7959 63.13 23.2225 63.13C23.8359 63.13 24.2692 62.8733 24.5225 62.36H25.7525C25.5859 62.8667 25.2825 63.2833 24.8425 63.61C24.4092 63.93 23.8692 64.09 23.2225 64.09C22.6959 64.09 22.2225 63.9733 21.8025 63.74C21.3892 63.5 21.0625 63.1667 20.8225 62.74C20.5892 62.3067 20.4725 61.8067 20.4725 61.24C20.4725 60.6733 20.5859 60.1767 20.8125 59.75C21.0459 59.3167 21.3692 58.9833 21.7825 58.75C22.2025 58.5167 22.6825 58.4 23.2225 58.4C23.7425 58.4 24.2059 58.5133 24.6125 58.74C25.0192 58.9667 25.3359 59.2867 25.5625 59.7C25.7892 60.1067 25.9025 60.5767 25.9025 61.11ZM24.7125 60.75C24.7059 60.33 24.5559 59.9933 24.2625 59.74C23.9692 59.4867 23.6059 59.36 23.1725 59.36C22.7792 59.36 22.4425 59.4867 22.1625 59.74C21.8825 59.9867 21.7159 60.3233 21.6625 60.75H24.7125ZM29.3844 61.21L31.1644 64H29.8744L28.6844 62.13L27.5644 64H26.3744L28.1544 61.29L26.3744 58.49H27.6644L28.8544 60.36L29.9744 58.49H31.1644L29.3844 61.21ZM33.3446 59.42V62.47C33.3446 62.6767 33.3913 62.8267 33.4846 62.92C33.5846 63.0067 33.7513 63.05 33.9846 63.05H34.6846V64H33.7846C33.2713 64 32.878 63.88 32.6046 63.64C32.3313 63.4 32.1946 63.01 32.1946 62.47V59.42H31.5446V58.49H32.1946V57.12H33.3446V58.49H34.6846V59.42H33.3446ZM43.703 64L42.843 63.14C42.5097 63.4733 42.1463 63.7233 41.753 63.89C41.3597 64.05 40.9197 64.13 40.433 64.13C39.9397 64.13 39.503 64.0433 39.123 63.87C38.743 63.6967 38.4497 63.45 38.243 63.13C38.0363 62.8033 37.933 62.4267 37.933 62C37.933 61.52 38.0697 61.0933 38.343 60.72C38.6163 60.34 39.023 60.04 39.563 59.82C39.3697 59.5867 39.233 59.37 39.153 59.17C39.073 58.9633 39.033 58.7367 39.033 58.49C39.033 58.1833 39.1097 57.91 39.263 57.67C39.423 57.43 39.6497 57.24 39.943 57.1C40.2363 56.96 40.5763 56.89 40.963 56.89C41.3563 56.89 41.6897 56.9667 41.963 57.12C42.243 57.2667 42.4497 57.47 42.583 57.73C42.723 57.99 42.7797 58.28 42.753 58.6H41.613C41.6197 58.3533 41.5597 58.1633 41.433 58.03C41.3063 57.89 41.133 57.82 40.913 57.82C40.693 57.82 40.513 57.8867 40.373 58.02C40.2397 58.1467 40.173 58.3033 40.173 58.49C40.173 58.67 40.223 58.85 40.323 59.03C40.4297 59.2033 40.613 59.43 40.873 59.71L42.713 61.54L43.423 60.37H44.653L43.753 61.91L43.503 62.32L45.193 64H43.703ZM40.433 63.16C41.0597 63.16 41.613 62.9033 42.093 62.39L40.253 60.54C39.4663 60.8533 39.073 61.3267 39.073 61.96C39.073 62.3 39.1997 62.5867 39.453 62.82C39.7063 63.0467 40.033 63.16 40.433 63.16ZM49.6781 57.05V64H48.5381V57.05H49.6781ZM57.8448 58.4C58.2781 58.4 58.6648 58.49 59.0048 58.67C59.3515 58.85 59.6215 59.1167 59.8148 59.47C60.0148 59.8233 60.1148 60.25 60.1148 60.75V64H58.9848V60.92C58.9848 60.4267 58.8615 60.05 58.6148 59.79C58.3681 59.5233 58.0315 59.39 57.6048 59.39C57.1781 59.39 56.8381 59.5233 56.5848 59.79C56.3381 60.05 56.2148 60.4267 56.2148 60.92V64H55.0848V60.92C55.0848 60.4267 54.9615 60.05 54.7148 59.79C54.4681 59.5233 54.1315 59.39 53.7048 59.39C53.2781 59.39 52.9381 59.5233 52.6848 59.79C52.4381 60.05 52.3148 60.4267 52.3148 60.92V64H51.1748V58.49H52.3148V59.12C52.5015 58.8933 52.7381 58.7167 53.0248 58.59C53.3115 58.4633 53.6181 58.4 53.9448 58.4C54.3848 58.4 54.7781 58.4933 55.1248 58.68C55.4715 58.8667 55.7381 59.1367 55.9248 59.49C56.0915 59.1567 56.3515 58.8933 56.7048 58.7C57.0581 58.5 57.4381 58.4 57.8448 58.4ZM61.1854 61.22C61.1854 60.6667 61.2988 60.1767 61.5254 59.75C61.7588 59.3233 62.0721 58.9933 62.4654 58.76C62.8654 58.52 63.3054 58.4 63.7854 58.4C64.2188 58.4 64.5954 58.4867 64.9154 58.66C65.2421 58.8267 65.5021 59.0367 65.6954 59.29V58.49H66.8454V64H65.6954V63.18C65.5021 63.44 65.2388 63.6567 64.9054 63.83C64.5721 64.0033 64.1921 64.09 63.7654 64.09C63.2921 64.09 62.8588 63.97 62.4654 63.73C62.0721 63.4833 61.7588 63.1433 61.5254 62.71C61.2988 62.27 61.1854 61.7733 61.1854 61.22ZM65.6954 61.24C65.6954 60.86 65.6154 60.53 65.4554 60.25C65.3021 59.97 65.0988 59.7567 64.8454 59.61C64.5921 59.4633 64.3188 59.39 64.0254 59.39C63.7321 59.39 63.4588 59.4633 63.2054 59.61C62.9521 59.75 62.7454 59.96 62.5854 60.24C62.4321 60.5133 62.3554 60.84 62.3554 61.22C62.3554 61.6 62.4321 61.9333 62.5854 62.22C62.7454 62.5067 62.9521 62.7267 63.2054 62.88C63.4654 63.0267 63.7388 63.1 64.0254 63.1C64.3188 63.1 64.5921 63.0267 64.8454 62.88C65.0988 62.7333 65.3021 62.52 65.4554 62.24C65.6154 61.9533 65.6954 61.62 65.6954 61.24ZM70.5628 58.4C70.9894 58.4 71.3661 58.4867 71.6928 58.66C72.0261 58.8267 72.2861 59.0367 72.4728 59.29V58.49H73.6228V64.09C73.6228 64.5967 73.5161 65.0467 73.3028 65.44C73.0894 65.84 72.7794 66.1533 72.3728 66.38C71.9728 66.6067 71.4928 66.72 70.9328 66.72C70.1861 66.72 69.5661 66.5433 69.0728 66.19C68.5794 65.8433 68.2994 65.37 68.2328 64.77H69.3628C69.4494 65.0567 69.6328 65.2867 69.9128 65.46C70.1994 65.64 70.5394 65.73 70.9328 65.73C71.3928 65.73 71.7628 65.59 72.0428 65.31C72.3294 65.03 72.4728 64.6233 72.4728 64.09V63.17C72.2794 63.43 72.0161 63.65 71.6828 63.83C71.3561 64.0033 70.9828 64.09 70.5628 64.09C70.0828 64.09 69.6428 63.97 69.2428 63.73C68.8494 63.4833 68.5361 63.1433 68.3028 62.71C68.0761 62.27 67.9628 61.7733 67.9628 61.22C67.9628 60.6667 68.0761 60.1767 68.3028 59.75C68.5361 59.3233 68.8494 58.9933 69.2428 58.76C69.6428 58.52 70.0828 58.4 70.5628 58.4ZM72.4728 61.24C72.4728 60.86 72.3928 60.53 72.2328 60.25C72.0794 59.97 71.8761 59.7567 71.6228 59.61C71.3694 59.4633 71.0961 59.39 70.8028 59.39C70.5094 59.39 70.2361 59.4633 69.9828 59.61C69.7294 59.75 69.5228 59.96 69.3628 60.24C69.2094 60.5133 69.1328 60.84 69.1328 61.22C69.1328 61.6 69.2094 61.9333 69.3628 62.22C69.5228 62.5067 69.7294 62.7267 69.9828 62.88C70.2428 63.0267 70.5161 63.1 70.8028 63.1C71.0961 63.1 71.3694 63.0267 71.6228 62.88C71.8761 62.7333 72.0794 62.52 72.2328 62.24C72.3928 61.9533 72.4728 61.62 72.4728 61.24ZM80.1701 61.11C80.1701 61.3167 80.1568 61.5033 80.1301 61.67H75.9201C75.9535 62.11 76.1168 62.4633 76.4101 62.73C76.7035 62.9967 77.0635 63.13 77.4901 63.13C78.1035 63.13 78.5368 62.8733 78.7901 62.36H80.0201C79.8535 62.8667 79.5501 63.2833 79.1101 63.61C78.6768 63.93 78.1368 64.09 77.4901 64.09C76.9635 64.09 76.4901 63.9733 76.0701 63.74C75.6568 63.5 75.3301 63.1667 75.0901 62.74C74.8568 62.3067 74.7401 61.8067 74.7401 61.24C74.7401 60.6733 74.8535 60.1767 75.0801 59.75C75.3135 59.3167 75.6368 58.9833 76.0501 58.75C76.4701 58.5167 76.9501 58.4 77.4901 58.4C78.0101 58.4 78.4735 58.5133 78.8801 58.74C79.2868 58.9667 79.6035 59.2867 79.8301 59.7C80.0568 60.1067 80.1701 60.5767 80.1701 61.11ZM78.9801 60.75C78.9735 60.33 78.8235 59.9933 78.5301 59.74C78.2368 59.4867 77.8735 59.36 77.4401 59.36C77.0468 59.36 76.7101 59.4867 76.4301 59.74C76.1501 59.9867 75.9835 60.3233 75.9301 60.75H78.9801Z" fill="#05386B"/>
<rect x="23.5" y="14.5" width="49" height="32" fill="white" stroke="#B8C7D6" stroke-width="3"/>
<rect x="15.5" y="14.5" width="63" height="32" fill="white" stroke="#B8C7D6" stroke-width="3"/>
<rect x="22" y="20" width="19" height="21" rx="1" fill="#B8C7D6"/>
<rect x="48" y="23" width="22" height="4" rx="2" fill="#B8C7D6"/>
<rect x="48" y="29" width="18" height="4" rx="2" fill="#B8C7D6"/>
<rect x="48" y="35" width="10" height="4" rx="2" fill="#B8C7D6"/>
</svg>
