<svg width="94" height="75" viewBox="0 0 94 75" fill="none" xmlns="http://www.w3.org/2000/svg">
<rect x="0.5" y="0.5" width="93" height="74" rx="3.5" fill="white" stroke="#E6EBF0"/>
<path d="M42.4763 57.05V57.98H40.6263V64H39.4863V57.98H37.6263V57.05H42.4763ZM48.6809 61.11C48.6809 61.3167 48.6675 61.5033 48.6409 61.67H44.4309C44.4642 62.11 44.6275 62.4633 44.9209 62.73C45.2142 62.9967 45.5742 63.13 46.0009 63.13C46.6142 63.13 47.0475 62.8733 47.3009 62.36H48.5309C48.3642 62.8667 48.0609 63.2833 47.6209 63.61C47.1875 63.93 46.6475 64.09 46.0009 64.09C45.4742 64.09 45.0009 63.9733 44.5809 63.74C44.1675 63.5 43.8409 63.1667 43.6009 62.74C43.3675 62.3067 43.2509 61.8067 43.2509 61.24C43.2509 60.6733 43.3642 60.1767 43.5909 59.75C43.8242 59.3167 44.1475 58.9833 44.5609 58.75C44.9809 58.5167 45.4609 58.4 46.0009 58.4C46.5209 58.4 46.9842 58.5133 47.3909 58.74C47.7975 58.9667 48.1142 59.2867 48.3409 59.7C48.5675 60.1067 48.6809 60.5767 48.6809 61.11ZM47.4909 60.75C47.4842 60.33 47.3342 59.9933 47.0409 59.74C46.7475 59.4867 46.3842 59.36 45.9509 59.36C45.5575 59.36 45.2209 59.4867 44.9409 59.74C44.6609 59.9867 44.4942 60.3233 44.4409 60.75H47.4909ZM52.1627 61.21L53.9427 64H52.6527L51.4627 62.13L50.3427 64H49.1527L50.9327 61.29L49.1527 58.49H50.4427L51.6327 60.36L52.7527 58.49H53.9427L52.1627 61.21ZM56.123 59.42V62.47C56.123 62.6767 56.1696 62.8267 56.263 62.92C56.363 63.0067 56.5296 63.05 56.763 63.05H57.463V64H56.563C56.0496 64 55.6563 63.88 55.383 63.64C55.1096 63.4 54.973 63.01 54.973 62.47V59.42H54.323V58.49H54.973V57.12H56.123V58.49H57.463V59.42H56.123Z" fill="#05386B"/>
<rect x="23.5" y="14.5" width="49" height="32" fill="white" stroke="#B8C7D6" stroke-width="3"/>
<rect x="15.5" y="14.5" width="63" height="32" fill="white" stroke="#B8C7D6" stroke-width="3"/>
<rect x="24" y="20" width="47" height="4" rx="2" fill="#B8C7D6"/>
<rect x="24" y="28" width="38" height="4" rx="2" fill="#B8C7D6"/>
<rect x="24" y="36" width="22" height="4" rx="2" fill="#B8C7D6"/>
</svg>
